<?xml version="1.0" encoding="utf-8"?>
<svg x="100pt" y="50pt" width="300pt" height="300pt" viewBox="100 50 300 300" xmlns="http://www.w3.org/2000/svg" xmlns:xlink="http://www.w3.org/1999/xlink">
  <!--Generated by AMDN-->
  <g id="Layer 1">
    <g id="Layer 3">
      <path id="Path 0" style="fill:none;opacity:1;stroke:#231f1f;stroke-dasharray:1.41098, 3.1094;stroke-dashoffset:0;stroke-linecap:round;stroke-linejoin:round;stroke-miterlimit:4;stroke-opacity:1;stroke-width:0.5;" d="M385.071,151.941 C395.912,164.189,342.884,191.562,266.63,213.081 C190.376,234.599,119.771,242.113,108.93,229.865"/>
      <path id="Path 1" style="fill:none;opacity:1;stroke:#231f1f;stroke-linecap:round;stroke-linejoin:round;stroke-miterlimit:4;stroke-opacity:1;stroke-width:0.5;" d="M108.93,229.865 C98.0893,217.616,151.117,190.243,227.371,168.725 C303.625,147.207,374.23,139.693,385.071,151.941"/>
    </g>
    <g id="Layer 4">
      <path id="Path 2" style="fill:none;opacity:1;stroke:#000000;stroke-linecap:round;stroke-linejoin:round;stroke-miterlimit:4;stroke-opacity:1;stroke-width:0.5;" d="M254.355,54.4292 C306.577,54.4292,348.911,119.603,348.911,200 C348.911,280.397,306.577,345.571,254.355,345.571"/>
      <path id="Path 3" style="fill:none;opacity:1;stroke:#000000;stroke-dasharray:1.74654, 3.22384;stroke-dashoffset:0;stroke-linecap:round;stroke-linejoin:round;stroke-miterlimit:4;stroke-opacity:1;stroke-width:0.5;" d="M254.355,345.571 C202.134,345.571,159.8,280.397,159.8,200 C159.8,119.603,202.134,54.4292,254.355,54.4292"/>
    </g>
    <g id="Layer 2">
      <path id="Path 4" style="fill:#ffb380;fill-opacity:0.540297;fill-rule:evenodd;opacity:1;stroke:#231f1f;stroke-linecap:butt;stroke-linejoin:miter;stroke-miterlimit:4;stroke-opacity:1;stroke-width:1;" d="M103.656,200 C103.656,119.603,169.177,54.4292,250,54.4292 C330.823,54.4292,396.344,119.603,396.344,200 C396.344,280.397,330.823,345.571,250,345.571 C169.177,345.571,103.656,280.397,103.656,200 z"/>
    </g>
    <g id="Layer 5">
      <path id="Path 5" style="fill:none;opacity:1;stroke:#b1ffb3;stroke-linecap:round;stroke-linejoin:round;stroke-miterlimit:4;stroke-opacity:1;stroke-width:2;" d="M298.634,71.3443 C328.542,95.792,348.911,144.234,348.911,200 C348.911,238.834,339.033,274.116,322.935,300.218"/>
      <path id="Path 6" style="fill:none;opacity:1;stroke:#b1e2ff;stroke-linecap:round;stroke-linejoin:round;stroke-miterlimit:4;stroke-opacity:1;stroke-width:2;" d="M245.167,164.713 C304.87,149.013,358.775,142.468,379.564,148.001"/>
      <path id="Path 7" style="fill:#ff507c;fill-opacity:1;fill-rule:evenodd;opacity:1;stroke:#ff507c;stroke-linecap:round;stroke-linejoin:round;stroke-miterlimit:4;stroke-opacity:1;stroke-width:2;" d="M333.546,146.063 C333.546,141.368,337.352,137.561,342.048,137.561 C346.744,137.561,350.55,141.368,350.55,146.063 C350.55,150.759,346.744,154.566,342.048,154.566 C337.352,154.566,333.546,150.759,333.546,146.063 z"/>
    </g>
  </g>
</svg>
